<svg width="174" height="139" viewBox="0 0 174 139" fill="none" xmlns="http://www.w3.org/2000/svg">
<path d="M10.8438 98.5L162.781 98.5C166.009 98.5 168.625 95.8837 168.625 92.6562V10.8438C168.625 7.61633 166.009 5 162.781 5L10.8438 5C7.61633 5 5 7.61633 5 10.8438V92.6563C5 95.8837 7.61633 98.5 10.8438 98.5Z" stroke="white" stroke-width="10" stroke-linejoin="round"/>
<path d="M16.6875 116.031H156.938M28.375 133.562H145.25" stroke="white" stroke-width="10" stroke-linecap="round" stroke-linejoin="round"/>
<path d="M86.8125 80.9688C102.95 80.9688 116.031 67.8871 116.031 51.75C116.031 35.6129 102.95 22.5312 86.8125 22.5312C70.6754 22.5312 57.5938 35.6129 57.5938 51.75C57.5938 67.8871 70.6754 80.9688 86.8125 80.9688Z" stroke="white" stroke-width="10" stroke-linecap="round" stroke-linejoin="round"/>
<path d="M168.625 34.2188C160.876 34.2187 153.444 31.1404 147.964 25.6608C142.485 20.1812 139.406 12.7493 139.406 5M5 34.2188C8.83706 34.2188 12.6365 33.463 16.1815 31.9946C19.7265 30.5262 22.9476 28.374 25.6608 25.6608C28.374 22.9476 30.5262 19.7265 31.9946 16.1815C33.463 12.6366 34.2188 8.83706 34.2188 5M168.625 69.2812C160.876 69.2812 153.444 72.3596 147.964 77.8392C142.485 83.3188 139.406 90.7507 139.406 98.5M5 69.2812C8.83706 69.2812 12.6365 70.037 16.1815 71.5054C19.7265 72.9738 22.9476 75.126 25.6608 77.8392C28.374 80.5524 30.5262 83.7735 31.9946 87.3185C33.463 90.8634 34.2188 94.6629 34.2188 98.5" stroke="white" stroke-width="10" stroke-linecap="round" stroke-linejoin="round"/>
</svg>
